<svg width="174" height="64" viewBox="0 0 174 64" fill="none" xmlns="http://www.w3.org/2000/svg">
<path d="M10.875 54.4368V9.56322L33.7125 14.2679V7.12997L0 0V64L47.125 53.3215V46.3448L10.875 54.4368Z" fill="#5BCD03"/>
<path d="M139.124 30.951L124.719 34.3023L77.8197 23.718V33.5575L65.09 30.5786V49.3291L58.7251 50.9091V21.7524L71.4549 24.9931V22.2816V15.2727L124.719 27.6135L139.124 30.951Z" fill="#B4B4B4"/>
<path d="M36.2502 8V15.0337L49.6627 17.7625V52.3636L56.1877 50.9034V19.09L69.6002 21.8188V14.9658L36.2502 8Z" fill="#010101"/>
<path d="M75.214 43.7872L76.3946 43.7724C76.3159 44.2855 76.1339 44.728 75.8486 45.0997C75.5666 45.4682 75.2124 45.7511 74.7861 45.9485C74.3597 46.1426 73.8908 46.233 73.3792 46.2199C72.9102 46.21 72.5167 46.1064 72.1986 45.909C71.8805 45.7116 71.6313 45.4517 71.4509 45.1294C71.2705 44.8037 71.1508 44.4418 71.0918 44.0438C71.0361 43.6457 71.0361 43.2411 71.0918 42.8299L71.1754 42.2328C71.241 41.792 71.3607 41.3659 71.5345 40.9547C71.7083 40.5435 71.9346 40.1767 72.2134 39.8543C72.4954 39.5319 72.8299 39.2803 73.2169 39.0993C73.6038 38.9151 74.0416 38.8279 74.5303 38.8378C75.032 38.8477 75.4534 38.9579 75.7945 39.1684C76.1388 39.3757 76.4028 39.6635 76.5865 40.032C76.7701 40.4004 76.8701 40.8281 76.8865 41.3149L75.6912 41.31C75.6912 41.0271 75.6518 40.7754 75.5731 40.555C75.4977 40.3346 75.3714 40.1603 75.1944 40.032C75.0173 39.9037 74.7746 39.8346 74.4663 39.8247C74.1318 39.8148 73.8432 39.879 73.6006 40.0172C73.3579 40.1553 73.1529 40.3428 72.9857 40.5797C72.8217 40.8166 72.6922 41.0797 72.5971 41.3692C72.502 41.6554 72.4331 41.94 72.3905 42.2229L72.3019 42.8348C72.2691 43.0716 72.2527 43.3266 72.2527 43.5996C72.2527 43.8727 72.2855 44.1309 72.3511 44.3744C72.42 44.6178 72.5397 44.8201 72.7102 44.9813C72.884 45.1392 73.1283 45.2231 73.4431 45.233C73.7711 45.2461 74.0515 45.1951 74.2843 45.08C74.5204 44.9649 74.7139 44.7971 74.8648 44.5767C75.0189 44.3563 75.1353 44.0931 75.214 43.7872Z" fill="#010101"/>
<path d="M95.3529 42.3216L95.3037 42.7114C95.2382 43.1654 95.1168 43.6046 94.9397 44.029C94.7659 44.45 94.5364 44.8283 94.2511 45.1639C93.969 45.4962 93.6312 45.7577 93.2377 45.9485C92.8442 46.1393 92.3965 46.2298 91.8948 46.2199C91.416 46.21 91.0126 46.1031 90.6847 45.8991C90.3567 45.6952 90.0993 45.4254 89.9124 45.0899C89.7287 44.7543 89.6058 44.3826 89.5434 43.9747C89.4811 43.5635 89.4762 43.1473 89.5287 42.7262L89.5828 42.3364C89.6484 41.8857 89.7697 41.4498 89.9468 41.0287C90.1239 40.6077 90.3551 40.231 90.6404 39.8987C90.9257 39.5632 91.2651 39.3 91.6587 39.1092C92.0522 38.9184 92.4982 38.8279 92.9967 38.8378C93.4788 38.8477 93.8821 38.9546 94.2068 39.1585C94.5347 39.3592 94.7905 39.6273 94.9742 39.9629C95.1611 40.2984 95.2841 40.6702 95.3431 41.0781C95.4021 41.486 95.4054 41.9005 95.3529 42.3216ZM94.0936 42.7262L94.1478 42.3167C94.1773 42.0699 94.1904 41.8068 94.1871 41.5271C94.1838 41.2442 94.1445 40.9778 94.069 40.7277C93.9936 40.4744 93.8657 40.2672 93.6854 40.106C93.5083 39.9448 93.2558 39.8576 92.9278 39.8445C92.59 39.8313 92.2949 39.8987 92.0424 40.0468C91.7931 40.1915 91.5832 40.3873 91.4127 40.634C91.2422 40.8807 91.1061 41.1521 91.0044 41.4482C90.906 41.7443 90.8372 42.0354 90.7978 42.3216L90.7437 42.7312C90.7109 42.9746 90.6962 43.2378 90.6994 43.5207C90.706 43.8036 90.747 44.0717 90.8224 44.325C90.8978 44.5783 91.0257 44.7889 91.2061 44.9566C91.3865 45.1211 91.6374 45.2083 91.9587 45.2182C92.3031 45.2313 92.5999 45.1639 92.8491 45.0159C93.0983 44.8678 93.3082 44.6704 93.4788 44.4237C93.6493 44.177 93.7837 43.9056 93.8821 43.6095C93.9838 43.3134 94.0543 43.019 94.0936 42.7262Z" fill="#010101"/>
<path d="M97.4485 44.029L101.374 38.9365H102.614L101.369 46.1212H100.164L101.049 41.0238L97.1287 46.1212H95.8891L97.1337 38.9365H98.3339L97.4485 44.029ZM100.857 37.1008L101.713 37.091C101.69 37.3903 101.604 37.6453 101.453 37.8558C101.302 38.0664 101.105 38.2259 100.862 38.3345C100.623 38.443 100.357 38.494 100.065 38.4875C99.6457 38.4809 99.2997 38.3542 99.0275 38.1075C98.7553 37.8608 98.6192 37.5219 98.6192 37.091L99.4801 37.0959C99.4702 37.2999 99.5112 37.4676 99.6031 37.5992C99.6949 37.7275 99.8507 37.7933 100.07 37.7966C100.293 37.7999 100.47 37.7374 100.602 37.6091C100.733 37.4775 100.818 37.3081 100.857 37.1008Z" fill="#010101"/>
<path d="M132.138 43.7872L133.319 43.7724C133.24 44.2855 133.058 44.728 132.773 45.0997C132.491 45.4682 132.137 45.7511 131.71 45.9485C131.284 46.1426 130.815 46.233 130.303 46.2199C129.834 46.21 129.441 46.1064 129.123 45.909C128.805 45.7116 128.555 45.4517 128.375 45.1294C128.195 44.8037 128.075 44.4418 128.016 44.0438C127.96 43.6457 127.96 43.2411 128.016 42.8299L128.1 42.2328C128.165 41.792 128.285 41.3659 128.459 40.9547C128.632 40.5435 128.859 40.1767 129.138 39.8543C129.42 39.5319 129.754 39.2803 130.141 39.0993C130.528 38.9151 130.966 38.8279 131.454 38.8378C131.956 38.8477 132.378 38.9579 132.719 39.1684C133.063 39.3757 133.327 39.6635 133.511 40.032C133.694 40.4004 133.794 40.8281 133.811 41.3149L132.615 41.31C132.615 41.0271 132.576 40.7754 132.497 40.555C132.422 40.3346 132.296 40.1603 132.118 40.032C131.941 39.9037 131.699 39.8346 131.39 39.8247C131.056 39.8148 130.767 39.879 130.525 40.0172C130.282 40.1553 130.077 40.3428 129.91 40.5797C129.746 40.8166 129.616 41.0797 129.521 41.3692C129.426 41.6554 129.357 41.94 129.315 42.2229L129.226 42.8348C129.193 43.0716 129.177 43.3266 129.177 43.5996C129.177 43.8727 129.21 44.1309 129.275 44.3744C129.344 44.6178 129.464 44.8201 129.634 44.9813C129.808 45.1392 130.052 45.2231 130.367 45.233C130.695 45.2461 130.976 45.1951 131.208 45.08C131.445 44.9649 131.638 44.7971 131.789 44.5767C131.943 44.3563 132.059 44.0931 132.138 43.7872Z" fill="#010101"/>
<path d="M79.838 46.1212H78.6377L79.7113 39.9234H77.5506L77.7228 38.9365H79.8823H81.0776H83.2568L83.0846 39.9234H80.9074L79.838 46.1212Z" fill="#010101"/>
<path d="M105.663 46.1212H104.463L105.537 39.9234H103.376L103.548 38.9365H105.708H106.903H109.082L108.91 39.9234H106.733L105.663 46.1212Z" fill="#010101"/>
<path fill-rule="evenodd" clip-rule="evenodd" d="M109.953 46.1212H108.743L109.987 38.9365L112.56 38.9414C113.003 38.9513 113.398 39.0467 113.746 39.2276C114.093 39.4053 114.359 39.6586 114.542 39.9876C114.729 40.3165 114.803 40.7129 114.764 41.1768C114.721 41.6933 114.564 42.1209 114.292 42.4598C114.023 42.7953 113.68 43.0437 113.263 43.2049C112.847 43.3661 112.399 43.4467 111.921 43.4467L110.416 43.4427L109.953 46.1212ZM112.708 42.3265C112.481 42.4186 112.232 42.4647 111.96 42.4647L110.586 42.4608L111.025 39.9234L112.526 39.9283C112.775 39.9382 112.981 39.9974 113.145 40.106C113.309 40.2113 113.427 40.3576 113.5 40.5452C113.572 40.7294 113.59 40.9432 113.554 41.1866C113.518 41.4761 113.424 41.7146 113.273 41.9022C113.126 42.0897 112.937 42.2311 112.708 42.3265Z" fill="#010101"/>
<path fill-rule="evenodd" clip-rule="evenodd" d="M114.897 46.1212H113.588L117.445 38.9365H117.76H118.286H118.542L119.924 46.1212H118.699L118.428 44.4385H115.749L114.897 46.1212ZM117.783 40.4268L118.27 43.4565H116.247L117.783 40.4268Z" fill="#010101"/>
<path d="M121.926 46.1212H120.716L121.96 38.9365H123.171L122.651 41.9367H125.762L126.279 38.9365H127.48L126.235 46.1212H125.04L125.592 42.9187H122.481L121.926 46.1212Z" fill="#010101"/>
<path d="M135.793 38.9365H136.305H136.821L137.869 44.4681L140.83 38.9365H141.386H141.952H142.419L141.175 46.1212H139.969L140.397 43.6737L141.032 40.6326L138.056 46.1212H137.2L136.096 40.4822L135.65 43.7773L135.242 46.1212H134.037L135.282 38.9365H135.793Z" fill="#010101"/>
<path d="M147.319 45.1392L147.146 46.1212H142.586L143.831 38.9365H148.361L148.189 39.9234H144.87L144.521 41.9367H147.387L147.22 42.9039H144.354L143.967 45.1392H147.319Z" fill="#010101"/>
<path d="M151.087 46.1212H149.886L150.96 39.9234H148.799L148.971 38.9365H151.131H152.326H154.505L154.333 39.9234H152.156L151.087 46.1212Z" fill="#010101"/>
<path fill-rule="evenodd" clip-rule="evenodd" d="M154.358 46.1212H153.049L156.906 38.9365H157.221H157.747H158.003L159.385 46.1212H158.16L157.89 44.4385H155.211L154.358 46.1212ZM155.708 43.4565L157.244 40.4268L157.732 43.4565H155.708Z" fill="#010101"/>
<path d="M162.74 38.9365H163.704H165.79H166.075H166.995L165.751 46.1212H164.545L165.619 39.9234H163.488L162.922 42.5042C162.853 42.8266 162.778 43.1588 162.696 43.501C162.614 43.8431 162.509 44.1721 162.381 44.4879C162.256 44.8004 162.097 45.0817 161.904 45.3317C161.71 45.5817 161.469 45.7774 161.181 45.9189C160.895 46.0603 160.551 46.1278 160.148 46.1212H159.789L159.916 45.1392L160.089 45.1294C160.364 45.1096 160.594 45.0307 160.777 44.8925C160.964 44.751 161.117 44.5718 161.235 44.3546C161.353 44.1375 161.446 43.9023 161.515 43.649C161.587 43.3924 161.645 43.1374 161.687 42.8841C161.733 42.6308 161.778 42.3989 161.82 42.1884L162.499 38.9365H162.74Z" fill="#010101"/>
<path d="M169.745 38.9365H170.709H172.795H173.08H174L172.755 46.1212H171.55L172.624 39.9234H170.493L169.927 42.5042C169.858 42.8266 169.783 43.1588 169.701 43.501C169.619 43.8431 169.514 44.1721 169.386 44.4879C169.261 44.8004 169.102 45.0817 168.909 45.3317C168.715 45.5817 168.474 45.7774 168.186 45.9189C167.9 46.0603 167.556 46.1278 167.153 46.1212H166.793L166.921 45.1392L167.093 45.1294C167.369 45.1096 167.599 45.0307 167.782 44.8925C167.969 44.751 168.122 44.5718 168.24 44.3546C168.358 44.1375 168.451 43.9023 168.52 43.649C168.592 43.3924 168.65 43.1374 168.692 42.8841C168.738 42.6308 168.782 42.3989 168.825 42.1884L169.504 38.9365H169.745Z" fill="#010101"/>
<path fill-rule="evenodd" clip-rule="evenodd" d="M84.1275 46.1212H82.9174L84.1619 38.9365L86.7346 38.9414C87.1773 38.9513 87.5725 39.0467 87.9201 39.2276C88.2678 39.4053 88.5334 39.6586 88.717 39.9876C88.904 40.3165 88.9777 40.7129 88.9384 41.1768C88.8958 41.6933 88.7384 42.1209 88.4662 42.4598C88.1972 42.7953 87.8545 43.0437 87.4381 43.2049C87.0216 43.3661 86.5739 43.4467 86.0951 43.4467L84.5909 43.4427L84.1275 46.1212ZM86.8822 42.3265C86.6559 42.4186 86.4067 42.4647 86.1345 42.4647L84.7608 42.4608L85.1999 39.9234L86.7002 39.9283C86.9494 39.9382 87.156 39.9974 87.32 40.106C87.484 40.2113 87.602 40.3576 87.6742 40.5452C87.7463 40.7294 87.7644 40.9432 87.7283 41.1866C87.6922 41.4761 87.5988 41.7146 87.4479 41.9022C87.3003 42.0897 87.1118 42.2311 86.8822 42.3265Z" fill="#010101"/>
</svg>
